<svg width="205" height="204" viewBox="0 0 205 204" fill="none" xmlns="http://www.w3.org/2000/svg">
<g filter="url(#filter0_f)">
<path d="M102.5 200C156.9 200 201 156.124 201 102C201 47.8761 156.9 4 102.5 4C48.1 4 4 47.8761 4 102C4 156.124 48.1 200 102.5 200Z" fill="#0E0E0E"/>
</g>
<g filter="url(#filter1_f)">
<path d="M102 160C133.48 160 159 134.256 159 102.5C159 70.7436 133.48 45 102 45C70.5198 45 45 70.7436 45 102.5C45 134.256 70.5198 160 102 160Z" fill="#F30909"/>
</g>
<g filter="url(#filter2_f)">
<path d="M102 111C106.418 111 110 107.194 110 102.5C110 97.8056 106.418 94 102 94C97.5817 94 94 97.8056 94 102.5C94 107.194 97.5817 111 102 111Z" fill="black"/>
</g>
<defs>
<filter id="filter0_f" x="0" y="0" width="205" height="204" filterUnits="userSpaceOnUse" color-interpolation-filters="sRGB">
<feFlood flood-opacity="0" result="BackgroundImageFix"/>
<feBlend mode="normal" in="SourceGraphic" in2="BackgroundImageFix" result="shape"/>
<feGaussianBlur stdDeviation="2" result="effect1_foregroundBlur"/>
</filter>
<filter id="filter1_f" x="41" y="41" width="122" height="123" filterUnits="userSpaceOnUse" color-interpolation-filters="sRGB">
<feFlood flood-opacity="0" result="BackgroundImageFix"/>
<feBlend mode="normal" in="SourceGraphic" in2="BackgroundImageFix" result="shape"/>
<feGaussianBlur stdDeviation="2" result="effect1_foregroundBlur"/>
</filter>
<filter id="filter2_f" x="90" y="90" width="24" height="25" filterUnits="userSpaceOnUse" color-interpolation-filters="sRGB">
<feFlood flood-opacity="0" result="BackgroundImageFix"/>
<feBlend mode="normal" in="SourceGraphic" in2="BackgroundImageFix" result="shape"/>
<feGaussianBlur stdDeviation="2" result="effect1_foregroundBlur"/>
</filter>
</defs>
</svg>
